HIERARCHY
ROOT SimulationBone
{
	OFFSET 0.000000 0.000000 0.000000
	CHANNELS 6 Xposition Yposition Zposition Zrotation Yrotation Xrotation 
	JOINT Hips
	{
		OFFSET 0.000000 0.000000 0.000000
		CHANNELS 6 Xposition Yposition Zposition Zrotation Yrotation Xrotation 
		JOINT RightUpLeg
		{
			OFFSET 0.103457 1.857834 10.548504
			CHANNELS 3 Zrotation Yrotation Xrotation
			JOINT RightLeg
			{
				OFFSET 43.499996 -0.000046 0.000000
				CHANNELS 3 Zrotation Yrotation Xrotation
				JOINT RightFoot
				{
					OFFSET 42.372192 0.000027 0.000002
					CHANNELS 3 Zrotation Yrotation Xrotation
					JOINT RightToe
					{
						OFFSET 17.299994 -0.000003 -0.000001
						CHANNELS 3 Zrotation Yrotation Xrotation
						End Site
						{
							OFFSET 0.000000 0.000000 0.000000
						}
					}
				}
			}
		}
		JOINT LeftUpLeg
		{
			OFFSET 0.103456 1.857832 -10.548504
			CHANNELS 3 Zrotation Yrotation Xrotation
			JOINT LeftLeg
			{
				OFFSET 43.500046 -0.000011 0.000010
				CHANNELS 3 Zrotation Yrotation Xrotation
				JOINT LeftFoot
				{
					OFFSET 42.372261 -0.000034 0.000021
					CHANNELS 3 Zrotation Yrotation Xrotation
					JOINT LeftToe
					{
						OFFSET 17.300011 0.000001 0.000002
						CHANNELS 3 Zrotation Yrotation Xrotation
						End Site
						{
							OFFSET 0.000000 0.000000 0.000000
						}
					}
				}
			}
		}
		JOINT Spine
		{
			OFFSET 6.901965 -2.603721 0.000001
			CHANNELS 3 Zrotation Yrotation Xrotation
			JOINT Spine1
			{
				OFFSET 12.588100 0.000000 -0.000000
				CHANNELS 3 Zrotation Yrotation Xrotation
				JOINT Spine2
				{
					OFFSET 12.343206 0.000005 0.000000
					CHANNELS 3 Zrotation Yrotation Xrotation
					JOINT Neck
					{
						OFFSET 25.832893 -0.000008 0.000000
						CHANNELS 3 Zrotation Yrotation Xrotation
						JOINT Head
						{
							OFFSET 11.766617 0.000009 0.000001
							CHANNELS 3 Zrotation Yrotation Xrotation
							End Site
							{
								OFFSET 0.000000 0.000000 0.000000
							}
						}
					}
					JOINT RightShoulder
					{
						OFFSET 19.745899 -1.480394 6.000106
						CHANNELS 3 Zrotation Yrotation Xrotation
						JOINT RightArm
						{
							OFFSET 11.284122 -0.000030 -0.000014
							CHANNELS 3 Zrotation Yrotation Xrotation
							JOINT RightForeArm
							{
								OFFSET 33.000050 0.000020 0.000016
								CHANNELS 3 Zrotation Yrotation Xrotation
								JOINT RightHand
								{
									OFFSET 25.200014 -0.000003 0.000011
									CHANNELS 3 Zrotation Yrotation Xrotation
									End Site
									{
										OFFSET 0.000000 0.000000 0.000000
									}
								}
							}
						}
					}
					JOINT LeftShoulder
					{
						OFFSET 19.746094 -1.480381 -6.000073
						CHANNELS 3 Zrotation Yrotation Xrotation
						JOINT LeftArm
						{
							OFFSET 11.284140 -0.000016 -0.000006
							CHANNELS 3 Zrotation Yrotation Xrotation
							JOINT LeftForeArm
							{
								OFFSET 33.000088 0.000015 0.000002
								CHANNELS 3 Zrotation Yrotation Xrotation
								JOINT LeftHand
								{
									OFFSET 25.199776 0.000133 0.000416
									CHANNELS 3 Zrotation Yrotation Xrotation
									End Site
									{
										OFFSET 0.000000 0.000000 0.000000
									}
								}
							}
						}
					}
				}
			}
		}
	}
}
MOTION
Frames: 10
Frame Time: 0.016667
66.535346 0.000000 186.840240 180.000000 67.576433 180.000000 -12.810230 92.348778 2.135495 78.140262 2.865454 -176.771134 157.339418 3.410008 167.055212 -51.286243 -2.308552 -4.641868 67.115753 3.941204 1.430429 21.454553 0.003104 0.000015 135.373966 4.049695 -175.597443 -62.607036 -1.687136 -0.366485 72.889346 3.225086 9.221590 21.454551 -0.003098 0.000001 14.028951 -0.220666 -1.302642 18.047810 -0.235169 -2.623669 17.730073 -0.251145 -2.622217 -9.757128 1.794750 8.368397 -28.595426 -6.580131 12.377262 100.559008 -69.850743 79.703845 -33.175170 39.701252 6.048545 -44.926866 -22.898407 2.145576 14.365206 -2.120688 17.953478 140.908001 78.206235 -38.283436 -16.732845 -46.327499 -4.365742 -104.423496 0.010883 -2.946267 12.048943 -5.228129 -29.715639 
64.948882 0.000000 183.978983 180.000000 64.994978 180.000000 -12.989845 93.044538 1.415321 78.034781 2.248962 -178.107696 159.060462 3.567088 168.295123 -50.668548 -2.338438 -3.806195 63.773123 2.653433 -0.526437 21.454553 0.003101 0.000017 135.208856 3.637160 -175.979632 -58.016173 -1.122866 0.822680 71.780040 3.702093 13.191295 21.454556 -0.003107 0.000004 13.832345 -0.071292 -1.374776 17.651052 0.068281 -2.744220 17.333351 0.051581 -2.744590 -9.282403 2.144648 8.299710 -29.242260 -7.140327 12.774812 101.423604 -70.458671 78.780762 -30.601996 42.140078 7.482630 -44.519447 -23.174513 2.151730 15.090285 -1.024400 17.513109 144.554857 78.893673 -34.541456 -12.133971 -47.551118 -8.048921 -104.995882 -0.118665 -2.962130 13.876647 -6.289502 -27.093423 
63.415704 0.000000 181.244485 180.000000 62.487031 180.000000 -12.968187 93.488113 0.688051 77.952541 1.387385 -179.441326 160.700527 3.618796 168.886659 -50.623899 -2.522094 -2.999243 61.819638 1.324353 -2.324520 21.454555 0.003102 0.000019 134.960097 3.611490 -176.215370 -53.534923 -0.927638 1.084434 71.015784 4.180469 14.942120 21.454557 -0.003101 0.000002 13.627920 0.010104 -1.427591 17.240139 0.233104 -2.837613 16.922463 0.215835 -2.838976 -9.047442 2.463315 8.164498 -29.376991 -7.711010 13.051739 102.587915 -70.838628 77.579990 -27.381259 44.127211 9.409160 -44.521122 -23.240866 2.156003 14.789793 -0.446151 16.662747 146.480944 79.054386 -32.579999 -6.409543 -48.452818 -11.698934 -105.446406 -0.323622 -2.967941 14.050950 -8.280632 -24.673746 
61.927478 0.000000 178.630562 180.000000 60.066394 180.000000 -12.761845 93.630072 -0.009530 78.005973 0.440276 179.346863 162.236789 3.633544 169.145080 -51.285321 -2.662149 -2.266799 60.921325 -0.028118 -4.203538 21.454555 0.003105 0.000020 134.748635 3.823147 -176.369822 -49.375777 -0.877034 0.835812 70.541383 4.638731 15.570725 21.454555 -0.003090 -0.000002 13.436585 0.063251 -1.467143 16.856069 0.339851 -2.909284 16.538413 0.322140 -2.911292 -9.040584 2.750929 7.981365 -29.107725 -8.250866 13.210695 103.595445 -71.134134 76.543552 -23.918877 45.762943 11.761592 -44.712523 -23.188572 2.158514 13.999306 -0.302909 15.506404 147.326760 79.082191 -31.721465 -0.367980 -49.117856 -15.233450 -105.718637 -0.506338 -2.967137 13.068690 -10.304323 -22.243164 
60.475871 0.000000 176.131034 180.000000 57.744556 180.000000 -12.391543 93.420982 -0.645545 78.284392 -0.422223 178.368294 163.648518 3.660790 169.388719 -52.780846 -2.561203 -1.657775 60.756936 -1.415728 -6.389616 21.454555 0.003107 0.000019 134.697531 4.122891 -176.506268 -45.748811 -0.819879 0.518723 70.320580 5.099111 16.174335 21.454553 -0.003083 -0.000004 13.279148 0.127861 -1.499716 16.539510 0.469077 -2.965614 16.221870 0.451019 -2.968403 -9.249881 3.007080 7.769426 -28.542813 -8.715323 13.257127 103.989066 -71.498171 76.114176 -20.643663 47.173073 14.445862 -44.873761 -23.108781 2.158006 13.259283 -0.499608 14.165030 148.080028 79.340202 -30.941113 5.192207 -49.704252 -18.577101 -105.756100 -0.569252 -2.964463 11.492396 -11.507031 -19.637318 
59.052551 0.000000 173.739717 180.000000 55.530574 180.000000 -11.889563 92.842413 -1.198078 78.826284 -1.076312 177.707869 164.920459 3.727711 169.926841 -55.154943 -2.167089 -1.226074 61.107191 -2.779428 -8.888006 21.454552 0.003108 0.000015 134.890113 4.425340 -176.663950 -42.848428 -0.669622 0.518319 70.216409 5.553107 17.505011 21.454552 -0.003087 -0.000001 13.170844 0.230456 -1.533508 16.320223 0.675197 -3.019045 16.002590 0.656817 -3.023075 -9.621055 3.265697 7.546328 -27.857188 -9.082668 13.230555 103.368970 -72.024962 76.682985 -17.869994 48.493003 17.316610 -44.831751 -23.072217 2.154117 12.947533 -0.907889 12.722717 149.684065 80.025422 -29.271844 9.629950 -50.318644 -21.636012 -105.504244 -0.456324 -2.961453 9.845542 -11.298414 -16.851330 
57.649184 0.000000 171.450429 180.000000 53.431099 180.000000 -11.322574 91.999939 -1.671811 79.541645 -1.609405 177.360383 166.058168 3.825387 171.025369 -58.132750 -2.000279 -0.974182 62.081460 -3.722756 -10.863860 21.454553 0.003108 0.000012 135.248454 4.899599 -176.793969 -40.799690 -0.370850 0.936978 69.615869 5.819930 18.929565 21.454553 -0.003093 0.000003 13.104829 0.344852 -1.583686 16.184984 0.908124 -3.103444 15.867359 0.889239 -3.108875 -9.931878 3.699555 7.322159 -27.490455 -9.431254 13.295971 101.621388 -72.560558 78.377673 -15.445332 49.784251 20.044982 -44.599307 -23.067866 2.146832 12.790978 -1.357171 11.121488 152.240283 80.716204 -26.641206 12.723206 -50.657723 -24.035184 -104.916301 -0.277484 -2.947884 8.186295 -10.008228 -14.156709 
56.257437 0.000000 169.256989 180.000000 51.450503 180.000000 -10.758862 90.997461 -2.068763 80.349500 -2.088582 177.312918 167.035469 3.864845 172.716443 -61.486908 -2.450792 -0.848458 63.718396 -3.907649 -11.517656 21.454558 0.003108 0.000015 135.684151 5.656677 -176.758167 -39.906322 0.074789 1.781695 68.348074 5.584245 19.433406 21.454553 -0.003090 0.000003 13.069504 0.452723 -1.658955 16.110861 1.132313 -3.238612 15.793251 1.112615 -3.245393 -9.967141 4.427224 7.081703 -27.726750 -9.851135 13.560356 98.929250 -72.893285 81.033356 -13.131284 51.029585 22.390964 -44.249889 -23.068419 2.136510 12.439295 -1.735038 9.428734 155.211959 80.995589 -23.617626 14.346606 -50.437963 -25.367591 -103.998788 -0.144455 -2.916518 6.544822 -8.212399 -11.795801 
54.868977 0.000000 167.153213 180.000000 49.591093 180.000000 -10.251377 89.808182 -2.325997 81.279142 -2.251045 177.613691 167.665599 3.503299 174.136807 -65.471570 -2.800915 -0.859301 65.647010 -3.501494 -11.083251 21.454563 0.003108 0.000019 136.231250 6.321700 -176.155824 -41.258812 0.431341 2.961961 68.575542 4.091575 17.870652 21.454553 -0.003087 0.000001 13.056310 0.619966 -1.735538 16.079331 1.475381 -3.368057 15.761715 1.454898 -3.376905 -9.703970 5.206074 6.713530 -27.953100 -10.377584 13.757989 96.293813 -72.896467 83.661023 -10.808289 51.971687 24.625420 -43.914079 -23.063235 2.125677 11.901215 -2.126175 8.340635 158.081611 81.069626 -20.709175 14.732797 -49.829292 -25.765207 -102.964001 -0.009007 -2.880569 5.514567 -6.575619 -9.741433 
53.475471 0.000000 165.132919 180.000000 47.853371 180.000000 -9.834708 88.397590 -2.395013 82.356953 -1.890329 178.277145 167.773349 2.503960 174.459842 -70.319704 -2.300969 -1.131620 67.533734 -2.762830 -10.099591 21.454563 0.003108 0.000017 136.941211 6.564917 -174.657151 -45.577110 0.491421 4.287084 72.332436 1.158796 13.685893 21.454553 -0.003091 0.000000 13.060231 0.900750 -1.787793 16.079476 2.041468 -3.433242 15.761785 2.020580 -3.445501 -9.171041 5.754922 6.132581 -27.632567 -10.999346 13.612368 94.646744 -72.569449 85.333215 -8.492178 52.366534 26.949137 -43.740080 -23.019694 2.116553 11.235814 -2.591681 8.469008 160.591920 81.178160 -18.162196 14.209924 -49.016774 -25.437835 -101.976308 0.185929 -2.850508 5.530777 -5.642687 -7.846417 
